<?xml version="1.0" encoding="UTF-8" standalone="no"?>
<svg
   xmlns:dc="http://purl.org/dc/elements/1.1/"
   xmlns:cc="http://creativecommons.org/ns#"
   xmlns:rdf="http://www.w3.org/1999/02/22-rdf-syntax-ns#"
   xmlns:svg="http://www.w3.org/2000/svg"
   xmlns="http://www.w3.org/2000/svg"
   viewBox="0 0 1122.52 793.70667"
   height="793.70667"
   width="1122.52"
   xml:space="preserve"
   id="svg2"
   version="1.1"><metadata
     id="metadata8"><rdf:RDF><cc:Work
         rdf:about=""><dc:format>image/svg+xml</dc:format><dc:type
           rdf:resource="http://purl.org/dc/dcmitype/StillImage" /><dc:title></dc:title></cc:Work></rdf:RDF></metadata><defs
     id="defs6"><clipPath
       id="clipPath34"
       clipPathUnits="userSpaceOnUse"><path
         id="path32"
         d="M 51.863,88.223 H 795.906 V 515.48 H 51.863 Z" /></clipPath></defs><g
     transform="matrix(1.3333333,0,0,-1.3333333,0,793.70667)"
     id="g10"><g
       transform="translate(340.3906,343.3765)"
       id="g12"><path
         id="path14"
         style="fill:#000000;fill-opacity:1;fill-rule:nonzero;stroke:none"
         d="M 0,0 1.083,8.665 27.077,-2.167 25.994,-9.748" /></g><g
       transform="translate(378.2988,327.1299)"
       id="g16"><path
         id="path18"
         style="fill:#000000;fill-opacity:1;fill-rule:nonzero;stroke:none"
         d="M 0,0 0.823,8.665 20.579,-2.166 19.756,-9.748" /></g><g
       transform="translate(409.167,313.0498)"
       id="g20"><path
         id="path22"
         style="fill:#000000;fill-opacity:1;fill-rule:nonzero;stroke:none"
         d="M 0,0 0.823,8.665 20.578,-2.166 19.756,-9.748" /></g><g
       transform="translate(89.1143,137.0479)"
       id="g24"><path
         id="path26"
         style="fill:#000000;fill-opacity:1;fill-rule:nonzero;stroke:none"
         d="M 0,0 43.992,-2.166 54.144,-8.664 686.941,20.579 Z" /></g><g
       id="g28"><g
         clip-path="url(#clipPath34)"
         id="g30"><g
           transform="translate(246.1621,155.4609)"
           id="g36"><path
             id="path38"
             style="fill:#000000;fill-opacity:1;fill-rule:nonzero;stroke:none"
             d="m 0,0 c 0,-11.964 -10.668,-21.662 -23.828,-21.662 -13.16,0 -23.828,9.698 -23.828,21.662 0,11.964 10.668,21.661 23.828,21.661 C -10.668,21.661 0,11.964 0,0" /></g><g
           transform="translate(318.1875,159.252)"
           id="g40"><path
             id="path42"
             style="fill:#000000;fill-opacity:1;fill-rule:nonzero;stroke:none"
             d="m 0,0 c 0,-12.861 -10.668,-23.287 -23.828,-23.287 -13.16,0 -23.828,10.426 -23.828,23.287 0,12.86 10.668,23.286 23.828,23.286 C -10.668,23.286 0,12.86 0,0" /></g><g
           transform="translate(359.4893,157.627)"
           id="g44"><path
             id="path46"
             style="fill:#000000;fill-opacity:1;fill-rule:nonzero;stroke:none"
             d="m 0,0 c 0,-10.168 -8.518,-18.412 -19.026,-18.412 -10.509,0 -19.027,8.244 -19.027,18.412 0,10.168 8.518,18.412 19.027,18.412 C -8.518,18.412 0,10.168 0,0" /></g><g
           transform="translate(404.979,158.168)"
           id="g48"><path
             id="path50"
             style="fill:#000000;fill-opacity:1;fill-rule:nonzero;stroke:none"
             d="m 0,0 c 0,-10.167 -8.518,-18.412 -19.026,-18.412 -10.509,0 -19.027,8.245 -19.027,18.412 0,10.168 8.518,18.413 19.027,18.413 C -8.518,18.413 0,10.168 0,0" /></g><g
           transform="translate(457.5078,160.876)"
           id="g52"><path
             id="path54"
             style="fill:#000000;fill-opacity:1;fill-rule:nonzero;stroke:none"
             d="m 0,0 c 0,-10.168 -8.517,-18.412 -19.025,-18.412 -10.509,0 -19.027,8.244 -19.027,18.412 0,10.168 8.518,18.413 19.027,18.413 C -8.517,18.413 0,10.168 0,0" /></g><g
           transform="translate(485.668,155.1631)"
           id="g56"><path
             id="path58"
             style="fill:#000000;fill-opacity:1;fill-rule:nonzero;stroke:none"
             d="m 0,0 c 0,-6.115 -5.122,-11.075 -11.444,-11.075 -6.321,0 -11.445,4.96 -11.445,11.075 0,6.116 5.124,11.075 11.445,11.075 C -5.122,11.075 0,6.116 0,0" /></g><g
           transform="translate(507.5732,153.9883)"
           id="g60"><path
             id="path62"
             style="fill:#000000;fill-opacity:1;fill-rule:nonzero;stroke:none"
             d="m 0,0 c 0,-5.168 -4.328,-9.358 -9.671,-9.358 -5.341,0 -9.67,4.19 -9.67,9.358 0,5.168 4.329,9.358 9.67,9.358 C -4.328,9.358 0,5.168 0,0" /></g><g
           transform="translate(524.9023,156.749)"
           id="g64"><path
             id="path66"
             style="fill:#000000;fill-opacity:1;fill-rule:nonzero;stroke:none"
             d="m 0,0 c 0,-4.3 -3.6,-7.787 -8.046,-7.787 -4.443,0 -8.046,3.487 -8.046,7.787 0,4.3 3.603,7.786 8.046,7.786 C -3.6,7.786 0,4.3 0,0" /></g><g
           transform="translate(543.0449,156.749)"
           id="g68"><path
             id="path70"
             style="fill:#000000;fill-opacity:1;fill-rule:nonzero;stroke:none"
             d="m 0,0 c 0,-4.3 -3.601,-7.787 -8.047,-7.787 -4.443,0 -8.046,3.487 -8.046,7.787 0,4.3 3.603,7.786 8.046,7.786 C -3.601,7.786 0,4.3 0,0" /></g><g
           transform="translate(566.0605,157.291)"
           id="g72"><path
             id="path74"
             style="fill:#000000;fill-opacity:1;fill-rule:nonzero;stroke:none"
             d="m 0,0 c 0,-4.3 -3.601,-7.787 -8.047,-7.787 -4.443,0 -8.046,3.487 -8.046,7.787 0,4.299 3.603,7.785 8.046,7.785 C -3.601,7.785 0,4.299 0,0" /></g><g
           transform="translate(595.0322,158.1025)"
           id="g76"><path
             id="path78"
             style="fill:#000000;fill-opacity:1;fill-rule:nonzero;stroke:none"
             d="m 0,0 c 0,-4.299 -3.6,-7.786 -8.046,-7.786 -4.443,0 -8.046,3.487 -8.046,7.786 0,4.3 3.603,7.786 8.046,7.786 C -3.6,7.786 0,4.3 0,0" /></g><g
           transform="translate(611.0078,158.6445)"
           id="g80"><path
             id="path82"
             style="fill:#000000;fill-opacity:1;fill-rule:nonzero;stroke:none"
             d="m 0,0 c 0,-4.3 -3.6,-7.787 -8.046,-7.787 -4.443,0 -8.046,3.487 -8.046,7.787 0,4.3 3.603,7.785 8.046,7.785 C -3.6,7.785 0,4.3 0,0" /></g><g
           transform="translate(621.5684,157.8936)"
           id="g84"><path
             id="path86"
             style="fill:#000000;fill-opacity:1;fill-rule:nonzero;stroke:none"
             d="m 0,0 c 0,-3.287 -2.752,-5.953 -6.15,-5.953 -3.397,0 -6.151,2.666 -6.151,5.953 0,3.286 2.754,5.951 6.151,5.951 C -2.752,5.951 0,3.286 0,0" /></g><g
           transform="translate(636.1895,158.4346)"
           id="g88"><path
             id="path90"
             style="fill:#000000;fill-opacity:1;fill-rule:nonzero;stroke:none"
             d="m 0,0 c 0,-3.287 -2.752,-5.952 -6.15,-5.952 -3.396,0 -6.151,2.665 -6.151,5.952 0,3.287 2.755,5.952 6.151,5.952 C -2.752,5.952 0,3.287 0,0" /></g><g
           transform="translate(652.6074,157.2168)"
           id="g92"><path
             id="path94"
             style="fill:#000000;fill-opacity:1;fill-rule:nonzero;stroke:none"
             d="m 0,0 c 0,-2.465 -2.063,-4.464 -4.611,-4.464 -2.547,0 -4.612,1.999 -4.612,4.464 0,2.464 2.065,4.462 4.612,4.462 C -2.063,4.462 0,2.464 0,0" /></g><g
           transform="translate(662.5566,157.8262)"
           id="g96"><path
             id="path98"
             style="fill:#000000;fill-opacity:1;fill-rule:nonzero;stroke:none"
             d="m 0,0 c 0,-2.466 -2.063,-4.464 -4.612,-4.464 -2.547,0 -4.612,1.998 -4.612,4.464 0,2.464 2.065,4.462 4.612,4.462 C -2.063,4.462 0,2.464 0,0" /></g><g
           transform="translate(672.0986,158.0293)"
           id="g100"><path
             id="path102"
             style="fill:#000000;fill-opacity:1;fill-rule:nonzero;stroke:none"
             d="m 0,0 c 0,-2.466 -2.063,-4.464 -4.611,-4.464 -2.547,0 -4.612,1.998 -4.612,4.464 0,2.463 2.065,4.462 4.612,4.462 C -2.063,4.462 0,2.463 0,0" /></g><g
           transform="translate(683.2051,158.2998)"
           id="g104"><path
             id="path106"
             style="fill:#000000;fill-opacity:1;fill-rule:nonzero;stroke:none"
             d="m 0,0 c 0,-2.465 -2.063,-4.464 -4.611,-4.464 -2.548,0 -4.613,1.999 -4.613,4.464 0,2.464 2.065,4.462 4.613,4.462 C -2.063,4.462 0,2.464 0,0" /></g><g
           transform="translate(693.1533,158.9092)"
           id="g108"><path
             id="path110"
             style="fill:#000000;fill-opacity:1;fill-rule:nonzero;stroke:none"
             d="m 0,0 c 0,-2.466 -2.063,-4.464 -4.611,-4.464 -2.547,0 -4.612,1.998 -4.612,4.464 0,2.464 2.065,4.462 4.612,4.462 C -2.063,4.462 0,2.464 0,0" /></g><g
           transform="translate(702.6963,159.1123)"
           id="g112"><path
             id="path114"
             style="fill:#000000;fill-opacity:1;fill-rule:nonzero;stroke:none"
             d="m 0,0 c 0,-2.466 -2.063,-4.464 -4.611,-4.464 -2.547,0 -4.613,1.998 -4.613,4.464 0,2.463 2.066,4.462 4.613,4.462 C -2.063,4.462 0,2.463 0,0" /></g><g
           transform="translate(713.2607,159.1123)"
           id="g116"><path
             id="path118"
             style="fill:#000000;fill-opacity:1;fill-rule:nonzero;stroke:none"
             d="m 0,0 c 0,-2.465 -2.063,-4.464 -4.612,-4.464 -2.547,0 -4.612,1.999 -4.612,4.464 0,2.464 2.065,4.462 4.612,4.462 C -2.063,4.462 0,2.464 0,0" /></g><g
           transform="translate(723.209,159.7207)"
           id="g120"><path
             id="path122"
             style="fill:#000000;fill-opacity:1;fill-rule:nonzero;stroke:none"
             d="m 0,0 c 0,-2.465 -2.063,-4.463 -4.611,-4.463 -2.547,0 -4.612,1.998 -4.612,4.463 0,2.465 2.065,4.463 4.612,4.463 C -2.063,4.463 0,2.465 0,0" /></g><g
           transform="translate(732.752,159.9238)"
           id="g124"><path
             id="path126"
             style="fill:#000000;fill-opacity:1;fill-rule:nonzero;stroke:none"
             d="m 0,0 c 0,-2.465 -2.063,-4.463 -4.611,-4.463 -2.547,0 -4.613,1.998 -4.613,4.463 0,2.464 2.066,4.463 4.613,4.463 C -2.063,4.463 0,2.464 0,0" /></g><g
           transform="translate(215.2939,268.6436)"
           id="g128"><path
             id="path130"
             style="fill:#000000;fill-opacity:1;fill-rule:nonzero;stroke:none"
             d="m 0,0 -12.455,0.541 -46.573,-115.349 2.166,-5.957 38.45,0.542 221.491,4.332 201.996,4.874 112.641,4.874 -2.708,38.45 -54.154,20.579 -11.373,1.083 -53.071,20.037 -28.16,-2.166 c 0,0 -28.702,27.077 -44.948,31.951 l -12.997,2.166 v 5.957 l -59.57,25.994 -36.284,-2.167 -104.517,49.281 -31.952,9.207" /></g><g
           transform="translate(340.9321,159.9336)"
           id="g132"><path
             id="path134"
             style="fill:#e2e3e5;fill-opacity:1;fill-rule:nonzero;stroke:none"
             d="m 0,0 c -9.607,0 -17.396,12.437 -17.396,27.776 0,15.341 7.789,27.777 17.396,27.777 9.607,0 17.396,-12.436 17.396,-27.777 C 17.396,12.437 9.607,0 0,0 m 0,67.553 c -13.758,0 -24.911,-17.809 -24.911,-39.777 0,-21.967 11.153,-39.775 24.911,-39.775 13.758,0 24.911,17.808 24.911,39.775 0,21.968 -11.153,39.777 -24.911,39.777" /></g><g
           transform="translate(390.4834,160.8818)"
           id="g136"><path
             id="path138"
             style="fill:#e2e3e5;fill-opacity:1;fill-rule:nonzero;stroke:none"
             d="M 0,0 C -8.667,0 -15.694,13.474 -15.694,30.095 -15.694,46.716 -8.667,60.19 0,60.19 8.667,60.19 15.694,46.716 15.694,30.095 15.694,13.474 8.667,0 0,0 m 0,73.191 c -12.412,0 -22.474,-19.295 -22.474,-43.096 0,-23.802 10.062,-43.098 22.474,-43.098 12.412,0 22.474,19.296 22.474,43.098 0,23.801 -10.062,43.096 -22.474,43.096" /></g><g
           transform="translate(438.5879,160.4287)"
           id="g140"><path
             id="path142"
             style="fill:#e2e3e5;fill-opacity:1;fill-rule:nonzero;stroke:none"
             d="m 0,0 c -8.005,0 -14.494,12.445 -14.494,27.795 0,15.351 6.489,27.796 14.494,27.796 8.005,0 14.495,-12.445 14.495,-27.796 C 14.495,12.445 8.005,0 0,0 m 0,67.599 c -11.463,0 -20.756,-17.821 -20.756,-39.804 0,-21.982 9.293,-39.803 20.756,-39.803 11.463,0 20.756,17.821 20.756,39.803 0,21.983 -9.293,39.804 -20.756,39.804" /></g><g
           transform="translate(478.5254,155.252)"
           id="g144"><path
             id="path146"
             style="fill:#e2e3e5;fill-opacity:1;fill-rule:nonzero;stroke:none"
             d="m 0,0 c -4.192,0 -7.592,6.519 -7.592,14.56 0,8.042 3.4,14.559 7.592,14.559 4.193,0 7.594,-6.517 7.594,-14.559 C 7.594,6.519 4.193,0 0,0 m 0,35.409 c -6.004,0 -10.872,-9.334 -10.872,-20.849 0,-11.514 4.868,-20.85 10.872,-20.85 6.005,0 10.872,9.336 10.872,20.85 0,11.515 -4.867,20.849 -10.872,20.849" /></g><g
           transform="translate(502.083,154.2207)"
           id="g148"><path
             id="path150"
             style="fill:#e2e3e5;fill-opacity:1;fill-rule:nonzero;stroke:none"
             d="m 0,0 c -3.88,0 -7.025,6.011 -7.025,13.425 0,7.415 3.145,13.424 7.025,13.424 3.88,0 7.026,-6.009 7.026,-13.424 C 7.026,6.011 3.88,0 0,0 m 0,32.649 c -5.557,0 -10.06,-8.606 -10.06,-19.224 C -10.06,2.808 -5.557,-5.8 0,-5.8 5.556,-5.8 10.06,2.808 10.06,13.425 10.06,24.043 5.556,32.649 0,32.649" /></g><g
           transform="translate(538.0547,155.4609)"
           id="g152"><path
             id="path154"
             style="fill:#e2e3e5;fill-opacity:1;fill-rule:nonzero;stroke:none"
             d="m 0,0 c -2.624,0 -4.75,4.062 -4.75,9.075 0,5.014 2.126,9.075 4.75,9.075 2.623,0 4.75,-4.061 4.75,-9.075 C 4.75,4.062 2.623,0 0,0 m 0,22.072 c -3.757,0 -6.802,-5.818 -6.802,-12.997 0,-7.178 3.045,-12.997 6.802,-12.997 3.756,0 6.801,5.819 6.801,12.997 0,7.179 -3.045,12.997 -6.801,12.997" /></g><g
           transform="translate(561.3154,154.5928)"
           id="g156"><path
             id="path158"
             style="fill:#e2e3e5;fill-opacity:1;fill-rule:nonzero;stroke:none"
             d="m 0,0 c -2.404,0 -4.354,3.724 -4.354,8.318 0,4.596 1.95,8.32 4.354,8.32 2.405,0 4.354,-3.724 4.354,-8.32 C 4.354,3.724 2.405,0 0,0 m 0,20.232 c -3.443,0 -6.234,-5.334 -6.234,-11.914 0,-6.579 2.791,-11.914 6.234,-11.914 3.442,0 6.233,5.335 6.233,11.914 0,6.58 -2.791,11.914 -6.233,11.914" /></g><g
           transform="translate(586.4844,153.3457)"
           id="g160"><path
             id="path162"
             style="fill:#e2e3e5;fill-opacity:1;fill-rule:nonzero;stroke:none"
             d="m 0,0 c -2.295,0 -4.154,3.555 -4.154,7.94 0,4.388 1.859,7.942 4.154,7.942 2.295,0 4.156,-3.554 4.156,-7.942 C 4.156,3.555 2.295,0 0,0 m 0,19.313 c -3.286,0 -5.951,-5.09 -5.951,-11.373 0,-6.28 2.665,-11.372 5.951,-11.372 3.286,0 5.95,5.092 5.95,11.372 0,6.283 -2.664,11.373 -5.95,11.373" /></g><g
           transform="translate(604.4717,154.1836)"
           id="g164"><path
             id="path166"
             style="fill:#e2e3e5;fill-opacity:1;fill-rule:nonzero;stroke:none"
             d="m 0,0 c -2.132,0 -3.858,3.302 -3.858,7.374 0,4.073 1.726,7.373 3.858,7.373 2.131,0 3.859,-3.3 3.859,-7.373 C 3.859,3.302 2.131,0 0,0 m 0,17.934 c -3.052,0 -5.525,-4.728 -5.525,-10.56 0,-5.832 2.473,-10.561 5.525,-10.561 3.053,0 5.526,4.729 5.526,10.561 0,5.832 -2.473,10.56 -5.526,10.56" /></g><g
           transform="translate(373.4248,205.8242)"
           id="g168"><path
             id="path170"
             style="fill:#e2e3e5;fill-opacity:1;fill-rule:nonzero;stroke:none"
             d="m 0,0 -0.542,-9.206 92.605,-4.332 -1.084,6.498 z" /></g><g
           transform="translate(373.4248,193.3691)"
           id="g172"><path
             id="path174"
             style="fill:#e2e3e5;fill-opacity:1;fill-rule:nonzero;stroke:none"
             d="m 0,0 -0.542,-4.333 92.063,-3.79 0.542,4.332 z" /></g><g
           transform="translate(474.6934,296.8037)"
           id="g176"><path
             id="path178"
             style="fill:#c1c2c4;fill-opacity:1;fill-rule:nonzero;stroke:none"
             d="m 0,0 -1.083,-87.188 41.699,-10.29 1.624,66.069 5.416,1.624 v 10.289 z" /></g><g
           transform="translate(229.3745,263.7695)"
           id="g180"><path
             id="path182"
             style="fill:#c1c2c4;fill-opacity:1;fill-rule:nonzero;stroke:none"
             d="m 0,0 -22.204,-40.074 16.788,-0.542 -1.083,-4.332 c 0,0 -30.326,0 -44.948,-7.04 l 3.249,7.582 17.33,3.249 24.369,47.655" /></g><g
           transform="translate(297.6089,269.7266)"
           id="g184"><path
             id="path186"
             style="fill:#c1c2c4;fill-opacity:1;fill-rule:nonzero;stroke:none"
             d="m 0,0 -19.496,-54.696 36.825,-7.04 -0.541,6.499 -24.37,8.123 21.121,63.36 z" /></g><g
           transform="translate(316.9233,300.9561)"
           id="g188"><path
             id="path190"
             style="fill:#c1c2c4;fill-opacity:1;fill-rule:nonzero;stroke:none"
             d="M 0,0 137.192,-38.27 V -49.101 L -3.61,-13.72" /></g><g
           transform="translate(314.7573,316.1191)"
           id="g192"><path
             id="path194"
             style="fill:#c1c2c4;fill-opacity:1;fill-rule:nonzero;stroke:none"
             d="M 0,0 140.801,-46.212 139.358,-50.544 -2.166,-9.387" /></g><g
           transform="translate(306.0928,355.1099)"
           id="g196"><path
             id="path198"
             style="fill:#c1c2c4;fill-opacity:1;fill-rule:nonzero;stroke:none"
             d="m 0,0 135.025,-58.486 12.997,-12.997 0.722,-10.109 -137.913,44.768 C 10.831,-36.824 2.888,-0.722 0,0" /></g><g
           transform="translate(280.8208,365.5796)"
           id="g200"><path
             id="path202"
             style="fill:#c1c2c4;fill-opacity:1;fill-rule:nonzero;stroke:none"
             d="m 0,0 v 36.825 c 0,0 28.161,16.246 48.739,-2.166 l -1.083,-50.905 z" /></g><g
           transform="translate(280.8208,365.5796)"
           id="g204"><path
             id="path206"
             style="fill:#000000;fill-opacity:1;fill-rule:nonzero;stroke:none"
             d="m 0,0 c 4.051,-1.122 8.089,-2.279 12.118,-3.463 l 12.068,-3.61 12.034,-3.709 12.001,-3.807 -2.315,-1.619 c -0.017,4.243 0.049,8.486 0.076,12.729 0.046,4.243 0.047,8.487 0.131,12.729 0.167,8.485 0.236,16.972 0.488,25.455 l 0.712,-1.64 c -0.794,0.637 -1.532,1.352 -2.369,1.931 l -1.233,0.898 -1.289,0.812 c -0.844,0.568 -1.774,0.985 -2.664,1.473 -0.931,0.403 -1.842,0.855 -2.809,1.175 -0.943,0.381 -1.932,0.629 -2.903,0.937 -0.993,0.232 -1.979,0.502 -2.993,0.653 -1.004,0.202 -2.029,0.295 -3.05,0.412 -1.027,0.074 -2.056,0.143 -3.091,0.141 C 23.878,41.51 22.84,41.479 21.804,41.407 20.766,41.348 19.73,41.228 18.695,41.104 16.627,40.817 14.563,40.434 12.523,39.923 10.482,39.415 8.464,38.792 6.481,38.067 5.494,37.695 4.507,37.316 3.542,36.893 2.586,36.479 1.598,36.02 0.724,35.571 L 1.448,36.825 1.177,27.619 C 1.098,24.55 0.971,21.481 0.857,18.413 0.75,15.344 0.623,12.275 0.476,9.207 0.349,6.137 0.165,3.069 0,0 m 0,0 c -0.165,3.069 -0.349,6.137 -0.475,9.207 -0.148,3.068 -0.275,6.137 -0.382,9.206 -0.113,3.068 -0.24,6.137 -0.32,9.206 l -0.271,9.206 -0.023,0.805 0.748,0.449 c 1.016,0.61 1.982,1.094 2.994,1.588 1.001,0.49 2.021,0.934 3.044,1.369 2.055,0.852 4.155,1.6 6.297,2.231 1.07,0.318 2.152,0.599 3.242,0.856 1.089,0.261 2.194,0.461 3.301,0.649 1.112,0.163 2.227,0.321 3.352,0.414 1.122,0.106 2.253,0.169 3.386,0.184 1.133,0.031 2.269,-0.014 3.405,-0.068 1.134,-0.097 2.273,-0.176 3.402,-0.369 1.135,-0.143 2.253,-0.412 3.375,-0.648 1.107,-0.306 2.22,-0.6 3.296,-1.014 1.095,-0.358 2.138,-0.854 3.196,-1.308 1.017,-0.539 2.075,-1.013 3.039,-1.644 0.489,-0.303 0.987,-0.595 1.468,-0.91 l 1.405,-1.002 c 0.95,-0.652 1.789,-1.438 2.686,-2.154 l 0.726,-0.579 -0.014,-1.061 C 50.768,26.127 50.476,17.646 50.282,9.162 50.186,4.92 50.006,0.68 49.872,-3.561 49.718,-7.802 49.604,-12.043 49.406,-16.283 l -0.113,-2.424 -2.202,0.804 -11.827,4.316 L 23.47,-9.173 11.71,-4.66 C 7.796,-3.137 3.893,-1.585 0,0" /></g><g
           transform="translate(318.5059,315.145)"
           id="g208"><path
             id="path210"
             style="fill:#c1c2c4;fill-opacity:1;fill-rule:nonzero;stroke:none"
             d="m 0,0 c 0,-33.621 -26.589,-60.88 -59.39,-60.88 -32.801,0 -59.39,27.259 -59.39,60.88 0,33.625 26.589,60.885 59.39,60.885 C -26.589,60.885 0,33.625 0,0" /></g><g
           transform="translate(259.1157,375.4883)"
           id="g212"><path
             id="path214"
             style="fill:#000000;fill-opacity:1;fill-rule:nonzero;stroke:none"
             d="m 0,0 c -32.449,0 -58.848,-27.07 -58.848,-60.343 0,-33.271 26.399,-60.339 58.848,-60.339 32.449,0 58.849,27.068 58.849,60.339 C 58.849,-27.07 32.449,0 0,0 m 0,-121.765 c -33.046,0 -59.932,27.554 -59.932,61.422 0,33.87 26.886,61.426 59.932,61.426 33.046,0 59.932,-27.556 59.932,-61.426 0,-33.868 -26.886,-61.422 -59.932,-61.422" /></g><g
           transform="translate(281.9043,407.8203)"
           id="g216"><path
             id="path218"
             style="fill:#e2e3e5;fill-opacity:1;fill-rule:nonzero;stroke:none"
             d="m 0,0 c -1.294,39.16 32.676,62.217 70.425,55.266 18.36,-3.381 33.702,-15.91 45.517,-30.38 10.679,-13.079 21.518,-24.324 33.254,-35.983 29.534,-29.341 66.865,-21.526 103.163,-33.04 36.7,-11.642 69.071,-36.259 106.898,-42.503 -35.499,4.445 -67.178,27.306 -102.566,32.541 -18.297,2.707 -37.888,0.203 -56.32,2.055 -18.279,1.837 -35.517,6.297 -53.071,12.235 -26.504,8.967 -44.882,25.303 -69.314,38.457 C 63.321,6.544 52.992,-0.864 39.016,-0.025 30.321,0.496 7.241,12.009 1.083,2.166" /></g><g
           transform="translate(324.1436,409.1201)"
           id="g220"><path
             id="path222"
             style="fill:#000000;fill-opacity:1;fill-rule:nonzero;stroke:none"
             d="m 0,0 c 0,0 1.271,0.001 3.641,0.077 2.373,0.074 5.846,0.286 10.278,0.576 4.419,0.232 9.875,0.694 16.077,-0.357 3.092,-0.518 6.314,-1.522 9.511,-3.001 3.191,-1.497 6.335,-3.478 9.396,-5.807 6.056,-4.602 12.783,-9.278 20.179,-13.846 7.39,-4.559 15.385,-9.039 23.894,-13.194 8.503,-4.167 17.513,-7.881 27.093,-10.351 1.196,-0.307 2.394,-0.616 3.593,-0.924 1.211,-0.262 2.425,-0.526 3.64,-0.788 2.421,-0.566 4.897,-0.908 7.354,-1.358 4.95,-0.708 9.936,-1.328 14.963,-1.631 10.041,-0.709 20.154,-0.676 30.123,-0.627 4.978,0.021 9.938,0.143 14.882,0.021 4.973,-0.115 9.854,-0.399 14.662,-0.962 9.597,-1.204 18.762,-3.442 27.069,-6.448 8.333,-2.95 15.877,-6.491 22.736,-9.777 6.867,-3.272 13.109,-6.306 18.795,-8.631 5.675,-2.338 10.74,-4.056 14.986,-5.211 4.249,-1.157 7.684,-1.653 10.027,-1.944 1.174,-0.125 2.079,-0.21 2.69,-0.239 0.61,-0.039 0.926,-0.059 0.926,-0.059 v -0.434 c 0,0 -0.319,-0.007 -0.937,-0.023 -0.618,-0.026 -1.534,-0.021 -2.732,-10e-4 -2.394,0.065 -5.913,0.364 -10.314,1.22 -2.2,0.427 -4.62,0.982 -7.222,1.705 -2.596,0.741 -5.377,1.63 -8.311,2.677 -5.865,2.092 -12.367,4.748 -19.34,7.792 -3.486,1.503 -7.12,3.101 -10.888,4.597 -3.769,1.525 -7.685,3.042 -11.774,4.371 -4.089,1.33 -8.322,2.558 -12.7,3.58 -4.379,1.017 -8.906,1.804 -13.551,2.35 -4.635,0.571 -9.411,0.926 -14.222,1.089 -4.839,0.16 -9.789,0.159 -14.795,0.236 -9.999,0.156 -20.193,0.328 -30.381,1.257 -5.097,0.392 -10.177,1.103 -15.213,1.907 -2.506,0.5 -5.025,0.891 -7.493,1.508 -1.237,0.29 -2.472,0.578 -3.706,0.866 -1.222,0.336 -2.442,0.671 -3.658,1.004 -9.737,2.676 -18.933,6.645 -27.424,10.981 -8.509,4.341 -16.523,8.95 -23.862,13.717 -7.34,4.753 -14.059,9.644 -20.018,14.378 -2.945,2.34 -5.961,4.329 -9.02,5.845 -3.066,1.498 -6.158,2.536 -9.152,3.103 C 23.798,0.396 18.373,0.065 13.957,-0.076 9.526,-0.272 6.034,-0.41 3.652,-0.433 1.267,-0.46 0.002,-0.434 0.002,-0.434 Z" /></g><g
           transform="translate(279.417,412.2036)"
           id="g224"><path
             id="path226"
             style="fill:#000000;fill-opacity:1;fill-rule:nonzero;stroke:none"
             d="m 0,0 0.136,0.954 c 0.089,0.629 0.215,1.561 0.435,2.781 0.43,2.434 1.119,6.001 2.519,10.413 1.388,4.405 3.528,9.672 7.041,15.13 3.492,5.447 8.437,11.056 15.014,15.677 6.549,4.631 14.676,8.235 23.734,10.009 4.527,0.875 9.282,1.348 14.184,1.069 2.467,-0.158 4.902,-0.436 7.492,-1.221 1.156,-0.394 2.287,-0.7 3.478,-1.169 1.179,-0.456 2.395,-0.882 3.531,-1.401 9.269,-3.966 17.969,-9.679 26.211,-16.086 8.239,-6.433 16.031,-13.625 23.501,-21.09 3.734,-3.735 7.392,-7.538 10.982,-11.361 3.596,-3.81 7.11,-7.689 10.64,-11.351 l 1.315,-1.337 1.369,-1.361 c 0.911,-0.921 1.821,-1.805 2.725,-2.647 1.789,-1.725 3.659,-3.387 5.515,-5.002 3.718,-3.231 7.569,-6.152 11.571,-8.623 7.968,-5.005 16.552,-8.187 25.094,-10.111 1.06,-0.267 2.123,-0.497 3.19,-0.694 1.044,-0.198 2.158,-0.45 3.123,-0.599 0.539,-0.084 1.074,-0.168 1.608,-0.251 0.499,-0.061 0.995,-0.122 1.49,-0.182 1.006,-0.108 2.044,-0.21 3.069,-0.278 4.105,-0.3 8.194,-0.406 12.17,-0.594 3.977,-0.187 7.859,-0.509 11.539,-1.205 1.832,-0.366 3.641,-0.779 5.322,-1.317 1.625,-0.509 3.194,-0.952 4.744,-1.535 6.165,-2.169 11.284,-4.378 15.489,-6.306 4.192,-1.927 7.431,-3.539 9.629,-4.656 2.193,-1.128 3.363,-1.73 3.363,-1.73 l -0.26,-0.595 c 0,0 -1.237,0.44 -3.558,1.266 -2.319,0.82 -5.718,2.029 -10.049,3.513 -4.327,1.452 -9.636,3.205 -15.694,4.79 -1.489,0.413 -3.12,0.775 -4.77,1.166 -1.587,0.391 -3.212,0.641 -4.916,0.864 -3.414,0.384 -7.077,0.477 -10.96,0.472 -3.89,-0.005 -8.001,-0.162 -12.368,-0.013 -1.092,0.034 -2.187,0.1 -3.329,0.182 -0.577,0.051 -1.157,0.101 -1.738,0.152 -0.543,0.065 -1.088,0.13 -1.635,0.194 -1.204,0.146 -2.251,0.349 -3.398,0.524 -1.126,0.167 -2.258,0.37 -3.395,0.612 -4.556,0.869 -9.212,2.126 -13.839,3.866 -4.614,1.756 -9.194,4 -13.509,6.778 -4.319,2.774 -8.398,5.996 -12.257,9.471 -1.93,1.742 -3.789,3.549 -5.63,5.431 -0.937,0.935 -1.835,1.871 -2.702,2.806 l -1.322,1.406 -1.351,1.468 c -6.947,7.794 -13.694,15.686 -20.913,23.228 -7.191,7.535 -14.68,14.778 -22.573,21.248 -7.892,6.445 -16.205,12.169 -24.953,16.158 -1.089,0.529 -2.179,0.935 -3.262,1.387 -1.066,0.456 -2.272,0.82 -3.392,1.231 -2.02,0.669 -4.368,1.024 -6.614,1.205 -4.549,0.36 -9.095,0.065 -13.433,-0.657 C 40.71,50.628 32.815,47.394 26.4,43.121 19.957,38.858 15.026,33.582 11.483,28.382 7.928,23.168 5.663,18.08 4.152,13.792 2.633,9.497 1.833,5.983 1.331,3.596 1.076,2.403 0.918,1.472 0.809,0.846 0.698,0.221 0.642,-0.103 0.642,-0.103 Z" /></g><g
           transform="translate(271.0747,315.3936)"
           id="g228"><path
             id="path230"
             style="fill:#ffffff;fill-opacity:1;fill-rule:nonzero;stroke:none"
             d="m 0,0 c 0,-10.367 -8.405,-18.772 -18.773,-18.772 -10.369,0 -18.774,8.405 -18.774,18.772 0,10.369 8.405,18.774 18.774,18.774 C -8.405,18.774 0,10.369 0,0" /></g><g
           transform="translate(252.3013,333.6265)"
           id="g232"><path
             id="path234"
             style="fill:#000000;fill-opacity:1;fill-rule:nonzero;stroke:none"
             d="m 0,0 c -10.054,0 -18.232,-8.179 -18.232,-18.233 0,-10.053 8.178,-18.231 18.232,-18.231 10.053,0 18.232,8.178 18.232,18.231 C 18.232,-8.179 10.053,0 0,0 m 0,-37.547 c -10.651,0 -19.315,8.665 -19.315,19.314 0,10.651 8.664,19.316 19.315,19.316 10.65,0 19.315,-8.665 19.315,-19.316 0,-10.649 -8.665,-19.314 -19.315,-19.314" /></g><g
           transform="translate(258.7979,353.6626)"
           id="g236"><path
             id="path238"
             style="fill:#000000;fill-opacity:1;fill-rule:nonzero;stroke:none"
             d="m 0,0 c 0,-3.19 -2.586,-5.776 -5.776,-5.776 -3.19,0 -5.777,2.586 -5.777,5.776 0,3.19 2.587,5.776 5.777,5.776 C -2.586,5.776 0,3.19 0,0" /></g><g
           transform="translate(239.3027,343.1929)"
           id="g240"><path
             id="path242"
             style="fill:#000000;fill-opacity:1;fill-rule:nonzero;stroke:none"
             d="m 0,0 c 0,-2.991 -2.425,-5.416 -5.415,-5.416 -2.991,0 -5.416,2.425 -5.416,5.416 0,2.991 2.425,5.416 5.416,5.416 C -2.425,5.416 0,2.991 0,0" /></g><g
           transform="translate(229.5552,322.6147)"
           id="g244"><path
             id="path246"
             style="fill:#000000;fill-opacity:1;fill-rule:nonzero;stroke:none"
             d="m 0,0 c 0,-2.99 -2.425,-5.416 -5.416,-5.416 -2.99,0 -5.415,2.426 -5.415,5.416 0,2.99 2.425,5.416 5.415,5.416 C -2.425,5.416 0,2.99 0,0" /></g><g
           transform="translate(228.1108,297.3418)"
           id="g248"><path
             id="path250"
             style="fill:#000000;fill-opacity:1;fill-rule:nonzero;stroke:none"
             d="m 0,0 c 0,-2.99 -2.425,-5.415 -5.416,-5.415 -2.99,0 -5.415,2.425 -5.415,5.415 0,2.99 2.425,5.416 5.415,5.416 C -2.425,5.416 0,2.99 0,0" /></g><g
           transform="translate(337.8613,282.9053)"
           id="g252"><path
             id="path254"
             style="fill:#c1c2c4;fill-opacity:1;fill-rule:nonzero;stroke:none"
             d="m 0,0 -18.051,-54.877 10.108,1.444 5.055,17.329 132.859,-22.382 v 4.332 l -128.527,23.105 0.722,5.777 127.082,-23.829 0.723,5.778 -127.083,22.383 2.888,5.054 121.306,-23.105 1.444,4.333 L 7.22,-11.553 10.831,1.444" /></g><g
           transform="translate(165.7695,154.3359)"
           id="g256"><path
             id="path258"
             style="fill:#e2e3e5;fill-opacity:1;fill-rule:nonzero;stroke:none"
             d="m 0,0 -4.927,2.249 22.745,49.822 4.927,-2.249 z" /></g><g
           transform="translate(180.4189,157.1084)"
           id="g260"><path
             id="path262"
             style="fill:#e2e3e5;fill-opacity:1;fill-rule:nonzero;stroke:none"
             d="m 0,0 -4.983,2.12 21.662,50.905 4.983,-2.12 z" /></g><g
           transform="translate(192.3467,157.1416)"
           id="g264"><path
             id="path266"
             style="fill:#e2e3e5;fill-opacity:1;fill-rule:nonzero;stroke:none"
             d="m 0,0 -5.01,2.054 22.203,54.154 5.011,-2.054 z" /></g><g
           transform="translate(206.9873,157.1875)"
           id="g268"><path
             id="path270"
             style="fill:#e2e3e5;fill-opacity:1;fill-rule:nonzero;stroke:none"
             d="M 0,0 -5.048,1.962 16.614,57.74 21.662,55.779 Z" /></g><g
           transform="translate(223.8223,157.3203)"
           id="g272"><path
             id="path274"
             style="fill:#e2e3e5;fill-opacity:1;fill-rule:nonzero;stroke:none"
             d="m 0,0 -5.143,1.696 18.413,55.78 5.143,-1.697 z" /></g><g
           transform="translate(242.2397,156.792)"
           id="g276"><path
             id="path278"
             style="fill:#e2e3e5;fill-opacity:1;fill-rule:nonzero;stroke:none"
             d="M 0,0 -5.152,1.67 13.26,58.531 18.413,56.862 Z" /></g><g
           transform="translate(257.3931,157.8457)"
           id="g280"><path
             id="path282"
             style="fill:#e2e3e5;fill-opacity:1;fill-rule:nonzero;stroke:none"
             d="m 0,0 -5.132,1.729 16.788,49.822 5.132,-1.729 z" /></g><g
           transform="translate(270.9507,156.8213)"
           id="g284"><path
             id="path286"
             style="fill:#e2e3e5;fill-opacity:1;fill-rule:nonzero;stroke:none"
             d="m 0,0 -5.17,1.611 15.705,50.365 5.17,-1.613 z" /></g><g
           transform="translate(281.7861,158.4619)"
           id="g288"><path
             id="path290"
             style="fill:#e2e3e5;fill-opacity:1;fill-rule:nonzero;stroke:none"
             d="m 0,0 -5.18,1.58 13.539,44.406 5.18,-1.58 z" /></g><g
           transform="translate(293.6968,156.8262)"
           id="g292"><path
             id="path294"
             style="fill:#e2e3e5;fill-opacity:1;fill-rule:nonzero;stroke:none"
             d="M 0,0 -5.173,1.602 8.907,47.091 14.08,45.489 Z" /></g><g
           transform="translate(484.4414,276.7666)"
           id="g296"><path
             id="path298"
             style="fill:#ffffff;fill-opacity:1;fill-rule:nonzero;stroke:none"
             d="m 0,0 -1.625,-20.579 27.077,-7.581 0.542,17.871 z" /></g><g
           transform="translate(528.8477,268.1016)"
           id="g300"><path
             id="path302"
             style="fill:#c1c2c4;fill-opacity:1;fill-rule:nonzero;stroke:none"
             d="m 0,0 2.166,-75.274 72.567,-10.289 -2.166,42.782 -21.662,7.04 c 0,0 -14.08,32.492 -50.905,35.741" /></g><g
           transform="translate(607.3721,179.2891)"
           id="g304"><path
             id="path306"
             style="fill:#000000;fill-opacity:1;fill-rule:nonzero;stroke:none"
             d="m 0,0 -76.899,6.498 1.625,4.874 76.357,-6.499 z" /></g><g
           transform="translate(515.3096,199.3262)"
           id="g308"><path
             id="path310"
             style="fill:#c1c2c4;fill-opacity:1;fill-rule:nonzero;stroke:none"
             d="M 0,0 -46.031,4.332 -47.114,0 -50.905,-0.542 V 9.747 l 9.206,0.542 z" /></g><g
           transform="translate(340.9321,230.1934)"
           id="g312"><path
             id="path314"
             style="fill:#e2e3e5;fill-opacity:1;fill-rule:nonzero;stroke:none"
             d="m 0,0 -5.415,-50.363 23.828,1.083 c 0,0 17.871,17.33 5.415,43.323 C 23.828,-5.957 10.29,5.416 0,0" /></g><g
           transform="translate(332.8091,220.1748)"
           id="g316"><path
             id="path318"
             style="fill:#e2e3e5;fill-opacity:1;fill-rule:nonzero;stroke:none"
             d="m 0,0 c 0,-5.832 -3.394,-10.56 -7.582,-10.56 -4.187,0 -7.581,4.728 -7.581,10.56 0,5.833 3.394,10.561 7.581,10.561 C -3.394,10.561 0,5.833 0,0" /></g><g
           transform="translate(332.2676,188.7656)"
           id="g320"><path
             id="path322"
             style="fill:#e2e3e5;fill-opacity:1;fill-rule:nonzero;stroke:none"
             d="m 0,0 c 0,-5.832 -3.394,-10.561 -7.582,-10.561 -4.187,0 -7.581,4.729 -7.581,10.561 0,5.832 3.394,10.561 7.581,10.561 C -3.394,10.561 0,5.832 0,0" /></g><g
           transform="translate(318.1875,213.4062)"
           id="g324"><path
             id="path326"
             style="fill:#c1c2c4;fill-opacity:1;fill-rule:nonzero;stroke:none"
             d="m 0,0 -15.163,-56.321 c 0,0 2.707,-5.415 8.664,1.083 l 3.791,14.081 h 4.874 c 0,0 0,-23.287 -15.705,-24.911 0,0 -9.206,-2.708 -6.498,7.581 L 0,9.206" /></g><g
           transform="translate(227.7495,236.6924)"
           id="g328"><path
             id="path330"
             style="fill:#c1c2c4;fill-opacity:1;fill-rule:nonzero;stroke:none"
             d="m 0,0 -4.874,-17.871 c 0,0 26.536,0.542 31.41,0 l 1.625,18.412 z" /></g><g
           transform="translate(421.6221,193.0977)"
           id="g332"><path
             id="path334"
             style="fill:#e2e3e5;fill-opacity:1;fill-rule:nonzero;stroke:none"
             d="m 0,0 c 0,-3.738 -2.182,-6.769 -4.874,-6.769 -2.691,0 -4.874,3.031 -4.874,6.769 0,3.739 2.183,6.77 4.874,6.77 C -2.182,6.77 0,3.739 0,0" /></g><g
           transform="translate(416.7485,199.3262)"
           id="g336"><path
             id="path338"
             style="fill:#000000;fill-opacity:1;fill-rule:nonzero;stroke:none"
             d="m 0,0 c -2.388,0 -4.333,-2.794 -4.333,-6.229 0,-3.433 1.945,-6.227 4.333,-6.227 2.389,0 4.332,2.794 4.332,6.227 C 4.332,-2.794 2.389,0 0,0 m 0,-13.539 c -2.986,0 -5.416,3.28 -5.416,7.31 0,4.032 2.43,7.312 5.416,7.312 2.986,0 5.416,-3.28 5.416,-7.312 0,-4.03 -2.43,-7.31 -5.416,-7.31" /></g><g
           transform="translate(453.5732,192.5566)"
           id="g340"><path
             id="path342"
             style="fill:#e2e3e5;fill-opacity:1;fill-rule:nonzero;stroke:none"
             d="m 0,0 c 0,-3.739 -2.182,-6.77 -4.874,-6.77 -2.691,0 -4.874,3.031 -4.874,6.77 0,3.739 2.183,6.77 4.874,6.77 C -2.182,6.77 0,3.739 0,0" /></g><g
           transform="translate(448.6992,198.7842)"
           id="g344"><path
             id="path346"
             style="fill:#000000;fill-opacity:1;fill-rule:nonzero;stroke:none"
             d="m 0,0 c -2.389,0 -4.332,-2.793 -4.332,-6.228 0,-3.434 1.943,-6.227 4.332,-6.227 2.39,0 4.333,2.793 4.333,6.227 C 4.333,-2.793 2.39,0 0,0 m 0,-13.538 c -2.985,0 -5.415,3.279 -5.415,7.31 0,4.031 2.43,7.311 5.415,7.311 2.986,0 5.416,-3.28 5.416,-7.311 0,-4.031 -2.43,-7.31 -5.416,-7.31" /></g><g
           transform="translate(614.9531,227.4863)"
           id="g348"><path
             id="path350"
             style="fill:#c1c2c4;fill-opacity:1;fill-rule:nonzero;stroke:none"
             d="m 0,0 2.166,-53.613 44.407,-1.624 -1.083,44.406 z" /></g><g
           transform="translate(662.0674,215.043)"
           id="g352"><path
             id="path354"
             style="fill:#c1c2c4;fill-opacity:1;fill-rule:nonzero;stroke:none"
             d="m 0,0 1.764,-43.639 36.144,-1.322 -0.882,36.146 z" /></g><g
           transform="translate(701.0586,204.2246)"
           id="g356"><path
             id="path358"
             style="fill:#c1c2c4;fill-opacity:1;fill-rule:nonzero;stroke:none"
             d="m 0,0 1.36,-33.664 27.883,-1.02 -0.68,27.883 z" /></g><g
           transform="translate(348.5137,221.5293)"
           id="g360"><path
             id="path362"
             style="fill:#000000;fill-opacity:1;fill-rule:nonzero;stroke:none"
             d="m 0,0 -5.415,-34.659 12.456,0.542 c 0,0 11.913,18.954 4.873,30.326 0,0 -6.498,6.498 -11.914,3.791" /></g><g
           transform="translate(534.2637,262.6865)"
           id="g364"><path
             id="path366"
             style="fill:#000000;fill-opacity:1;fill-rule:nonzero;stroke:none"
             d="m 0,0 c 0,0 25.452,0.541 38.991,-29.243 l 25.452,-9.748 -25.452,6.498 C 38.991,-32.493 23.828,-3.791 0,0" /></g><g
           transform="translate(534.623,202.7578)"
           id="g368"><path
             id="path370"
             style="fill:#000000;fill-opacity:1;fill-rule:nonzero;stroke:none"
             d="M 0,0 197.122,-27.438 1.443,-2.889 Z" /></g><g
           transform="translate(550.998,192.9248)"
           id="g372"><path
             id="path374"
             style="fill:#000000;fill-opacity:1;fill-rule:nonzero;stroke:none"
             d="M 0,0 179.533,-20.048 1.365,-2.48 Z" /></g><g
           transform="translate(617.3008,222.6123)"
           id="g376"><path
             id="path378"
             style="fill:#000000;fill-opacity:1;fill-rule:nonzero;stroke:none"
             d="m 0,0 v -13.359 l 6.137,-1.083 0.001,12.997 z" /></g><g
           transform="translate(625.2432,220.9873)"
           id="g380"><path
             id="path382"
             style="fill:#000000;fill-opacity:1;fill-rule:nonzero;stroke:none"
             d="m 0,0 v -13.358 l 6.137,-1.083 0.001,12.997 z" /></g><g
           transform="translate(634.0879,219.002)"
           id="g384"><path
             id="path386"
             style="fill:#000000;fill-opacity:1;fill-rule:nonzero;stroke:none"
             d="m 0,0 v -13.358 l 6.137,-1.083 0.002,12.997 z" /></g><g
           transform="translate(642.9326,217.3779)"
           id="g388"><path
             id="path390"
             style="fill:#000000;fill-opacity:1;fill-rule:nonzero;stroke:none"
             d="m 0,0 v -13.359 l 6.137,-1.083 0.001,12.997 z" /></g><g
           transform="translate(653.9443,215.0303)"
           id="g392"><path
             id="path394"
             style="fill:#000000;fill-opacity:1;fill-rule:nonzero;stroke:none"
             d="m 0,0 v -13.358 l 6.137,-1.083 0.001,12.997 z" /></g><g
           transform="translate(665.1357,211.2393)"
           id="g396"><path
             id="path398"
             style="fill:#000000;fill-opacity:1;fill-rule:nonzero;stroke:none"
             d="m 0,0 v -10.218 l 4.694,-0.829 0.001,9.943 z" /></g><g
           transform="translate(671.9961,209.6152)"
           id="g400"><path
             id="path402"
             style="fill:#000000;fill-opacity:1;fill-rule:nonzero;stroke:none"
             d="m 0,0 v -10.219 l 4.694,-0.829 0.001,9.943 z" /></g><g
           transform="translate(679.5781,207.9902)"
           id="g404"><path
             id="path406"
             style="fill:#000000;fill-opacity:1;fill-rule:nonzero;stroke:none"
             d="m 0,0 v -10.218 l 4.694,-0.83 0.001,9.943 z" /></g><g
           transform="translate(686.7988,206.5469)"
           id="g408"><path
             id="path410"
             style="fill:#000000;fill-opacity:1;fill-rule:nonzero;stroke:none"
             d="m 0,0 v -10.219 l 4.694,-0.829 0.001,9.943 z" /></g><g
           transform="translate(693.2979,205.2832)"
           id="g412"><path
             id="path414"
             style="fill:#000000;fill-opacity:1;fill-rule:nonzero;stroke:none"
             d="m 0,0 v -10.219 l 4.693,-0.829 0.001,9.943 z" /></g><g
           transform="translate(702.8643,202.0332)"
           id="g416"><path
             id="path418"
             style="fill:#000000;fill-opacity:1;fill-rule:nonzero;stroke:none"
             d="m 0,0 v -8.644 l 3.971,-0.702 10e-4,8.411 z" /></g><g
           transform="translate(709.7236,200.0479)"
           id="g420"><path
             id="path422"
             style="fill:#000000;fill-opacity:1;fill-rule:nonzero;stroke:none"
             d="m 0,0 v -8.644 l 3.971,-0.702 10e-4,8.411 z" /></g><g
           transform="translate(716.4033,198.6045)"
           id="g424"><path
             id="path426"
             style="fill:#000000;fill-opacity:1;fill-rule:nonzero;stroke:none"
             d="m 0,0 v -8.644 l 3.97,-0.702 0.002,8.41 z" /></g><g
           transform="translate(723.2617,196.9795)"
           id="g428"><path
             id="path430"
             style="fill:#000000;fill-opacity:1;fill-rule:nonzero;stroke:none"
             d="m 0,0 v -8.644 l 3.971,-0.702 10e-4,8.411 z" /></g><g
           transform="translate(271.8906,359.8071)"
           id="g432"><path
             id="path434"
             style="fill:#000000;fill-opacity:1;fill-rule:nonzero;stroke:none"
             d="M 0,0 C -2.771,0.87 -5.561,1.461 -8.344,1.82 5.594,-10.392 11.816,-30.107 5.909,-48.922 -1.2,-71.567 -23.465,-85.24 -46.212,-82.312 c 4.889,-4.283 10.719,-7.651 17.318,-9.724 25.415,-7.977 52.486,6.157 60.464,31.571 C 39.55,-35.05 25.415,-7.979 0,0" /></g><g
           transform="translate(242.3809,326.252)"
           id="g436"><path
             id="path438"
             style="fill:#000000;fill-opacity:1;fill-rule:nonzero;stroke:none"
             d="m 0,0 c -7.226,-1.976 -7.186,-13.089 -4.396,-18.491 3.585,-6.945 9.988,-9.672 18.621,-8.223 C 4.22,-25.389 -4.872,-8.871 0,0" /></g><g
           transform="translate(337.856,324.8296)"
           id="g440"><path
             id="path442"
             style="fill:#000000;fill-opacity:1;fill-rule:nonzero;stroke:none"
             d="m 0,0 c 0,0 14.722,-12.62 0,-28.392 0,0 23.134,8.413 0,28.392" /></g><g
           transform="translate(375.0981,310.1074)"
           id="g444"><path
             id="path446"
             style="fill:#000000;fill-opacity:1;fill-rule:nonzero;stroke:none"
             d="m 0,0 c 0,0 11.961,-10.283 0,-23.134 0,0 18.796,6.855 0,23.134" /></g><g
           transform="translate(415.1543,294.8301)"
           id="g448"><path
             id="path450"
             style="fill:#000000;fill-opacity:1;fill-rule:nonzero;stroke:none"
             d="m 0,0 c 0,0 9.269,-7.699 0,-17.321 0,0 14.563,5.132 0,17.321" /></g></g></g></g></svg>